<svg width="6092" height="1245" viewBox="0 0 6092 1245" fill="none" xmlns="http://www.w3.org/2000/svg">
<path fill-rule="evenodd" clip-rule="evenodd" d="M622.581 1245C278.739 1245 0 966.297 0 622.5C0 278.703 278.739 0 622.581 0C827.694 0 1009.64 99.177 1123.07 252.187C1127.42 257.409 1131.7 262.817 1135.92 268.41C1185.01 333.492 1221.7 420.336 1236.81 520.261C1242.3 553.525 1245.16 587.678 1245.16 622.5C1245.16 658.955 1242.03 694.679 1236.01 729.416C1220.44 827.197 1184.17 912.197 1135.92 976.17C1132.64 980.521 1129.32 984.76 1125.96 988.887C1012.74 1144.12 829.443 1245 622.581 1245ZM622.581 1137.91C337.89 1137.91 107.101 907.154 107.101 622.5C107.101 337.846 337.89 107.088 622.581 107.088C647.558 107.088 672.12 108.864 696.148 112.297C559 211.439 467.664 402.917 467.664 622.863C467.664 842.362 558.628 1033.51 695.309 1132.82C671.549 1136.18 647.268 1137.91 622.581 1137.91ZM832.271 1091.54V154.19C778.853 172.905 727.629 210.944 683.658 268.954C618.174 355.348 574.644 480.086 574.644 622.863C574.644 765.641 618.174 890.379 683.658 976.773C727.629 1034.78 778.853 1072.82 832.271 1091.54Z" fill="black"/>
<path d="M1350.83 622.29C1350.83 330.547 1190.91 88.8967 976.819 46.4091L1441 46.4091L1441 1198.85H973.291C1189.15 1158.33 1350.83 915.633 1350.83 622.29Z" fill="black"/>
<path d="M1707.84 622.58C1705.29 447.527 1839.56 309.864 2015.46 312.413C2158.22 312.413 2272.94 391.442 2298.43 512.959L2210.06 534.204C2186.26 444.978 2114.03 394.841 2015.46 394.841C1890.54 394.841 1800.47 487.466 1800.47 622.58C1800.47 757.694 1890.54 850.319 2015.46 850.319C2114.88 850.319 2187.96 795.933 2210.91 694.811L2299.28 716.055C2273.79 848.619 2161.62 932.747 2015.46 932.747C1839.56 935.296 1705.29 797.633 1707.84 622.58ZM2351.61 694.811C2351.61 559.697 2456.98 456.874 2598.89 456.874C2739.95 454.325 2849.58 561.396 2847.03 694.811C2849.58 828.225 2739.95 935.296 2598.89 932.747C2456.98 932.747 2351.61 829.924 2351.61 694.811ZM2759.5 694.811C2759.5 598.786 2693.22 534.204 2598.89 534.204C2505.42 534.204 2439.14 598.786 2439.14 694.811C2439.14 790.835 2505.42 855.417 2598.89 855.417C2693.22 855.417 2759.5 790.835 2759.5 694.811ZM2924.41 920V299.667H3011.93V920H2924.41ZM3088.95 694.811C3088.95 559.697 3194.32 456.874 3336.24 456.874C3477.3 454.325 3586.92 561.396 3584.37 694.811C3586.92 828.225 3477.3 935.296 3336.24 932.747C3194.32 932.747 3088.95 829.924 3088.95 694.811ZM3496.84 694.811C3496.84 598.786 3430.56 534.204 3336.24 534.204C3242.76 534.204 3176.48 598.786 3176.48 694.811C3176.48 790.835 3242.76 855.417 3336.24 855.417C3430.56 855.417 3496.84 790.835 3496.84 694.811ZM3627.96 767.891L3709.54 750.046C3725.68 823.126 3780.07 859.666 3870.99 859.666C3950.02 859.666 3998.46 836.722 3998.46 798.483C3998.46 760.243 3963.62 741.548 3862.5 727.102C3701.89 705.008 3645.8 666.768 3645.8 591.138C3645.8 510.41 3723.98 456.874 3842.1 456.874C3950.87 456.874 4048.6 518.908 4065.59 600.486L3984.86 620.031C3967.87 564.795 3913.48 529.955 3842.1 529.955C3774.97 529.955 3729.93 554.598 3729.93 589.439C3729.93 623.43 3760.52 637.876 3869.29 654.871C4025.65 678.665 4083.44 717.754 4083.44 798.483C4083.44 879.211 3998.46 932.747 3870.99 932.747C3740.13 932.747 3643.26 867.314 3627.96 767.891ZM4119.03 767.891L4200.61 750.046C4216.76 823.126 4271.14 859.666 4362.07 859.666C4441.1 859.666 4489.53 836.722 4489.53 798.483C4489.53 760.243 4454.69 741.548 4353.57 727.102C4192.96 705.008 4136.88 666.768 4136.88 591.138C4136.88 510.41 4215.06 456.874 4333.18 456.874C4441.95 456.874 4539.67 518.908 4556.67 600.486L4475.94 620.031C4458.94 564.795 4404.56 529.955 4333.18 529.955C4266.04 529.955 4221.01 554.598 4221.01 589.439C4221.01 623.43 4251.6 637.876 4360.37 654.871C4516.73 678.665 4574.51 717.754 4574.51 798.483C4574.51 879.211 4489.53 932.747 4362.07 932.747C4231.2 932.747 4134.33 867.314 4119.03 767.891ZM4657.46 1111.2L4771.33 885.159L4563.99 469.621H4663.41L4818.92 793.384H4820.62L4974.43 469.621H5073.85L4756.04 1111.2H4657.46ZM5082.34 798.483C5082.34 717.754 5137.57 676.965 5280.33 655.721C5372.11 641.275 5402.7 625.129 5402.7 594.537C5402.7 556.298 5361.91 531.654 5299.88 531.654C5228.5 531.654 5178.36 569.044 5165.61 630.228L5082.34 612.383C5090.83 565.645 5114.63 527.406 5153.72 499.363C5193.66 471.321 5242.09 456.874 5299.03 456.874C5418.85 456.874 5495.33 517.208 5495.33 613.232V920H5412.9V865.615H5411.2C5381.46 907.253 5319.42 932.747 5248.89 932.747C5146.07 932.747 5082.34 880.911 5082.34 798.483ZM5409.5 759.393V676.965H5407.8C5396.75 697.36 5367.01 709.257 5295.63 722.003C5203.85 738.149 5168.16 758.543 5168.16 795.933C5168.16 837.572 5197.91 856.267 5265.04 856.267C5341.52 856.267 5409.5 811.229 5409.5 759.393ZM5585.39 920V469.621H5670.37V519.758H5672.06C5706.91 479.818 5767.24 456.874 5829.27 456.874C5957.59 456.874 6044.26 536.753 6044.26 653.172V920H5956.74V667.618C5956.74 585.19 5904.05 534.204 5821.62 534.204C5777.44 534.204 5741.75 546.95 5713.7 572.443C5686.51 597.087 5672.91 629.378 5672.91 669.317V920H5585.39Z" fill="black"/>
</svg>
