<svg width="3935" height="858" viewBox="0 0 3935 858" fill="none" xmlns="http://www.w3.org/2000/svg">
<path d="M64.0866 436.299C64.0866 311.525 125.679 229.511 232.198 229.511C319.152 229.511 356.832 276.477 368.426 332.555H429.294C412.628 241.428 345.238 178.34 232.198 178.34C98.8683 178.34 0.320312 279.281 0.320312 436.299C0.320313 594.019 98.8683 695.661 232.198 695.661C345.238 695.661 412.628 632.573 429.294 541.446H368.426C356.832 597.524 319.152 644.489 232.198 644.489C125.679 644.489 64.0866 561.073 64.0866 436.299Z" fill="black"/>
<path d="M794.173 511.304C794.173 397.746 721.711 326.246 620.989 326.246C520.267 326.246 447.805 397.746 447.805 511.304C447.805 624.862 520.267 695.661 620.989 695.661C721.711 695.661 794.173 624.862 794.173 511.304ZM507.224 511.304C507.224 426.486 549.977 373.211 620.989 373.211C692.002 373.211 734.754 426.486 734.754 511.304C734.754 596.122 692.002 648.695 620.989 648.695C549.977 648.695 507.224 596.122 507.224 511.304Z" fill="black"/>
<path d="M905.786 687.249V171.33H845.643V687.249H905.786Z" fill="black"/>
<path d="M1303.41 511.304C1303.41 397.746 1230.95 326.246 1130.23 326.246C1029.51 326.246 957.047 397.746 957.047 511.304C957.047 624.862 1029.51 695.661 1130.23 695.661C1230.95 695.661 1303.41 624.862 1303.41 511.304ZM1016.47 511.304C1016.47 426.486 1059.22 373.211 1130.23 373.211C1201.24 373.211 1244 426.486 1244 511.304C1244 596.122 1201.24 648.695 1130.23 648.695C1059.22 648.695 1016.47 596.122 1016.47 511.304Z" fill="black"/>
<path d="M1323.73 582.803C1330.25 658.509 1395.46 695.661 1482.42 695.661C1564.3 695.661 1624.44 650.097 1624.44 588.411C1624.44 531.632 1589.66 503.593 1530.24 492.377L1457.78 479.059C1415.75 471.348 1394.01 458.731 1394.01 428.589C1394.01 394.241 1425.17 371.108 1473.72 371.108C1523.72 371.108 1556.33 392.138 1560.68 427.888H1616.47C1609.23 361.295 1557.78 326.246 1473.72 326.246C1393.29 326.246 1338.22 372.51 1338.22 432.093C1338.22 493.779 1380.97 516.912 1439.66 527.426L1504.16 540.044C1550.53 548.456 1567.92 565.279 1567.92 591.215C1567.92 629.068 1531.69 651.499 1481.69 651.499C1432.42 651.499 1386.04 631.171 1381.7 582.803H1323.73Z" fill="black"/>
<path d="M1646.63 582.803C1653.16 658.509 1718.37 695.661 1805.32 695.661C1887.21 695.661 1947.35 650.097 1947.35 588.411C1947.35 531.632 1912.57 503.593 1853.15 492.377L1780.69 479.059C1738.66 471.348 1716.92 458.731 1716.92 428.589C1716.92 394.241 1748.08 371.108 1796.63 371.108C1846.63 371.108 1879.24 392.138 1883.58 427.888H1939.38C1932.13 361.295 1880.69 326.246 1796.63 326.246C1716.2 326.246 1661.13 372.51 1661.13 432.093C1661.13 493.779 1703.88 516.912 1762.57 527.426L1827.06 540.044C1873.44 548.456 1890.83 565.279 1890.83 591.215C1890.83 629.068 1854.6 651.499 1804.6 651.499C1755.33 651.499 1708.95 631.171 1704.6 582.803H1646.63Z" fill="black"/>
<path d="M2098.63 690.053C2074.71 749.636 2058.05 769.263 2021.82 769.263C2012.4 769.263 2004.42 769.263 1992.83 766.459V814.126C2004.42 816.229 2018.19 817.631 2028.34 817.631C2095 816.93 2123.99 781.881 2157.32 697.764L2304.42 334.658H2242.1L2132.68 622.759H2131.23L2015.29 334.658H1952.25L2098.63 690.053Z" fill="black"/>
<path d="M2552.45 687.249H2612.59C2605.35 664.117 2603.9 639.583 2603.9 613.646V451.721C2603.9 366.903 2548.83 326.246 2460.42 326.246C2382.89 326.246 2324.92 366.903 2317.67 438.402H2375.64C2379.99 397.746 2410.43 373.211 2458.98 373.211C2508.97 373.211 2544.48 397.045 2544.48 453.123V473.451L2427.09 488.172C2353.18 496.583 2301.01 526.024 2301.01 594.019C2301.01 659.21 2355.35 694.96 2419.12 694.96C2479.99 694.96 2529.99 669.024 2545.93 627.666C2545.93 644.489 2548.1 667.622 2552.45 687.249ZM2431.44 650.798C2385.79 650.798 2361.88 625.563 2361.88 592.617C2361.88 544.951 2399.56 533.735 2445.21 527.426L2544.48 516.912V548.456C2544.48 616.45 2487.96 650.798 2431.44 650.798Z" fill="black"/>
<path d="M2736.33 334.658H2678.36V687.249H2738.5V493.078C2738.5 408.26 2782.7 373.912 2838.5 373.912C2895.74 373.912 2925.45 407.559 2925.45 472.75V687.249H2985.6V460.133C2985.6 376.015 2937.05 326.246 2855.17 326.246C2799.37 326.246 2753.72 355.687 2736.33 399.148V334.658Z" fill="black"/>
<path d="M3935 252.661C3935 225.392 3920.48 200.193 3896.91 186.556L3592.11 10.2304C3568.53 -3.41014 3539.47 -3.41013 3515.89 10.2304L3278.78 147.399L3693.59 386.664C3725.66 405.159 3762.01 414.894 3799.01 414.894H3935V252.661Z" fill="black"/>
<path d="M3935 443.106H3799.01C3762.01 443.106 3725.66 452.841 3693.59 471.336L3278.78 710.601L3515.89 847.77C3539.47 861.41 3568.53 861.41 3592.11 847.77L3896.91 671.444C3920.48 657.807 3935 632.608 3935 605.339V443.106Z" fill="black"/>
<path d="M3228.58 681.561C3243.3 690.076 3261.43 690.087 3276.16 681.592L3458.97 576.147V281.853L3276.16 176.408C3261.43 167.913 3243.3 167.924 3228.58 176.439L3211.09 186.556C3187.52 200.193 3173 225.392 3173 252.662V605.338C3173 632.608 3187.52 657.807 3211.09 671.444L3228.58 681.561Z" fill="black"/>
</svg>
